<?xml version="1.0" encoding="UTF-8"?>
<!DOCTYPE svg PUBLIC "-//W3C//DTD SVG 1.1//EN" "http://www.w3.org/Graphics/SVG/1.1/DTD/svg11.dtd">
<svg version="1.1" xmlns="http://www.w3.org/2000/svg" xmlns:xlink="http://www.w3.org/1999/xlink" x="0" y="0" width="1000" height="1000" viewBox="0, 0, 1000, 1000">
  <g id="Layer_1">
    <path d="M0,0 L1000,0 L1000,1000 L0,1000 z" fill="#FFB531" id="XMLID_12_"/>
  </g>
  <g id="XMLID_177_" opacity="0.2">
    <g id="XMLID_156_">
      <path d="M329.3,272.4 L329.3,325.4 L401.3,325.4 L401.3,272.4 L329.3,272.4 z M391.3,306.4 L339.3,306.4 L339.3,282.4 L391.3,282.4 L391.3,306.4 z" fill="#2D2D2D"/>
      <path d="M329.3,272.4 L329.3,325.4 L401.3,325.4 L401.3,272.4 L329.3,272.4 z M391.3,306.4 L339.3,306.4 L339.3,282.4 L391.3,282.4 L391.3,306.4 z" fill-opacity="0" stroke="#2D2D2D" stroke-width="6" stroke-linecap="round" stroke-linejoin="round" stroke-miterlimit="10"/>
    </g>
    <g id="XMLID_150_">
      <path d="M365.3,294.4 L365.3,306.4" fill="#2D2D2D"/>
      <path d="M365.3,294.4 L365.3,306.4" fill-opacity="0" stroke="#2D2D2D" stroke-width="6" stroke-linecap="round" stroke-linejoin="round" stroke-miterlimit="10"/>
    </g>
    <g id="XMLID_145_">
      <path d="M336.3,438.5 L394.3,438.5 L394.3,462.3 L336.3,462.3 z" fill="#2D2D2D"/>
      <path d="M336.3,438.5 L394.3,438.5 L394.3,462.3 L336.3,462.3 z" fill-opacity="0" stroke="#2D2D2D" stroke-width="6" stroke-linecap="round" stroke-linejoin="round" stroke-miterlimit="10"/>
    </g>
    <g id="XMLID_142_">
      <path d="M336.3,559.5 L394.3,559.5 L394.3,583.3 L336.3,583.3 z" fill="#2D2D2D"/>
      <path d="M336.3,559.5 L394.3,559.5 L394.3,583.3 L336.3,583.3 z" fill-opacity="0" stroke="#2D2D2D" stroke-width="6" stroke-linecap="round" stroke-linejoin="round" stroke-miterlimit="10"/>
    </g>
    <g id="XMLID_59_">
      <path d="M422.3,511.5 C422.3,542.98 396.78,568.5 365.3,568.5 C333.82,568.5 308.3,542.98 308.3,511.5 C308.3,480.02 333.82,454.5 365.3,454.5 C396.78,454.5 422.3,480.02 422.3,511.5 z" fill="#2D2D2D"/>
      <path d="M422.3,511.5 C422.3,542.98 396.78,568.5 365.3,568.5 C333.82,568.5 308.3,542.98 308.3,511.5 C308.3,480.02 333.82,454.5 365.3,454.5 C396.78,454.5 422.3,480.02 422.3,511.5 z" fill-opacity="0" stroke="#2D2D2D" stroke-width="6" stroke-linecap="round" stroke-linejoin="round" stroke-miterlimit="10"/>
    </g>
    <g id="XMLID_183_">
      <path d="M425.3,515.6 L423.9,515.6 C421.6,515.6 419.7,513.7 419.7,511.4 L419.7,504.6 C419.7,502.3 421.6,500.4 423.9,500.4 L425.3,500.4 C427.6,500.4 429.5,502.3 429.5,504.6 L429.5,511.4 C429.5,513.7 427.6,515.6 425.3,515.6 z" fill="#2D2D2D"/>
      <path d="M425.3,515.6 L423.9,515.6 C421.6,515.6 419.7,513.7 419.7,511.4 L419.7,504.6 C419.7,502.3 421.6,500.4 423.9,500.4 L425.3,500.4 C427.6,500.4 429.5,502.3 429.5,504.6 L429.5,511.4 C429.5,513.7 427.6,515.6 425.3,515.6 z" fill-opacity="0" stroke="#2D2D2D" stroke-width="6" stroke-linecap="round" stroke-linejoin="round" stroke-miterlimit="10"/>
    </g>
    <g id="XMLID_58_">
      <path d="M344.3,325.5 L386.3,325.5 L386.3,446.9 L344.3,446.9 z" fill="#2D2D2D"/>
      <path d="M344.3,325.5 L386.3,325.5 L386.3,446.9 L344.3,446.9 z" fill-opacity="0" stroke="#2D2D2D" stroke-width="6" stroke-linecap="round" stroke-linejoin="round" stroke-miterlimit="10"/>
    </g>
    <g id="XMLID_52_">
      <path d="M365.3,758.9 L365.3,758.9 C353.4,758.9 343.8,752.3 343.8,740.4 L343.8,577.5 L386.8,577.5 L386.8,740.4 C386.8,752.2 377.1,758.9 365.3,758.9 z" fill="#2D2D2D"/>
      <path d="M365.3,758.9 L365.3,758.9 C353.4,758.9 343.8,752.3 343.8,740.4 L343.8,577.5 L386.8,577.5 L386.8,740.4 C386.8,752.2 377.1,758.9 365.3,758.9 z" fill-opacity="0" stroke="#2D2D2D" stroke-width="6" stroke-linecap="round" stroke-linejoin="round" stroke-miterlimit="10"/>
    </g>
  </g>
  <g id="XMLID_26_" opacity="0.2">
    <g id="XMLID_25_">
      <path d="M579.8,559.2 L600.4,546.8 C584.6,536.4 574.4,518.2 575.1,497.9 C575.9,474.5 591,455 611.7,447.4 L588.8,434 C567.9,447.4 553.7,470.5 552.8,497.1 C551.9,521.7 562.5,544.2 579.8,559.2 z" fill="#2D2D2D"/>
      <path d="M579.8,559.2 L600.4,546.8 C584.6,536.4 574.4,518.2 575.1,497.9 C575.9,474.5 591,455 611.7,447.4 L588.8,434 C567.9,447.4 553.7,470.5 552.8,497.1 C551.9,521.7 562.5,544.2 579.8,559.2 z" fill-opacity="0" stroke="#2D2D2D" stroke-width="6" stroke-linecap="round" stroke-linejoin="round" stroke-miterlimit="10"/>
    </g>
    <g id="XMLID_16_">
      <path d="M705.3,654.9 L633.9,608.9 L622.2,247 C622,242.3 618.1,238.6 613.4,238.8 L608.6,239 C603.9,239.2 600.2,243.1 600.4,247.8 L612.4,621.1 L612.4,621.1 L612.4,621.1 L693.4,673.3 C697.3,675.8 702.6,674.7 705.1,670.8 L707.7,666.8 C710.4,662.7 709.3,657.5 705.3,654.9 z" fill="#2D2D2D"/>
      <path d="M705.3,654.9 L633.9,608.9 L622.2,247 C622,242.3 618.1,238.6 613.4,238.8 L608.6,239 C603.9,239.2 600.2,243.1 600.4,247.8 L612.4,621.1 L612.4,621.1 L612.4,621.1 L693.4,673.3 C697.3,675.8 702.6,674.7 705.1,670.8 L707.7,666.8 C710.4,662.7 709.3,657.5 705.3,654.9 z" fill-opacity="0" stroke="#2D2D2D" stroke-width="6" stroke-linecap="round" stroke-linejoin="round" stroke-miterlimit="10"/>
    </g>
    <g id="XMLID_14_">
      <path d="M727.5,351.1 L652.9,391.8 L615,751.9 C614.5,756.6 610.3,760 605.7,759.5 L600.9,759 C596.2,758.5 592.8,754.3 593.3,749.7 L632.4,378.2 L632.4,378.2 L632.4,378.2 L717,332 C721.1,329.8 726.3,331.3 728.5,335.4 L730.8,339.6 C733.1,343.7 731.6,348.8 727.5,351.1 z" fill="#2D2D2D"/>
      <path d="M727.5,351.1 L652.9,391.8 L615,751.9 C614.5,756.6 610.3,760 605.7,759.5 L600.9,759 C596.2,758.5 592.8,754.3 593.3,749.7 L632.4,378.2 L632.4,378.2 L632.4,378.2 L717,332 C721.1,329.8 726.3,331.3 728.5,335.4 L730.8,339.6 C733.1,343.7 731.6,348.8 727.5,351.1 z" fill-opacity="0" stroke="#2D2D2D" stroke-width="6" stroke-linecap="round" stroke-linejoin="round" stroke-miterlimit="10"/>
    </g>
    <g id="XMLID_10_">
      <path d="M716.9,356.8 C716.9,411.918 672.218,456.6 617.1,456.6 C561.982,456.6 517.3,411.918 517.3,356.8 C517.3,301.682 561.982,257 617.1,257 C672.218,257 716.9,301.682 716.9,356.8 z" fill="#2D2D2D"/>
      <path d="M716.9,356.8 C716.9,411.918 672.218,456.6 617.1,456.6 C561.982,456.6 517.3,411.918 517.3,356.8 C517.3,301.682 561.982,257 617.1,257 C672.218,257 716.9,301.682 716.9,356.8 z" fill-opacity="0" stroke="#2D2D2D" stroke-width="6" stroke-linecap="round" stroke-linejoin="round" stroke-miterlimit="10"/>
    </g>
    <g>
      <path d="M684.9,647.7 L611.9,604.3 L587.1,243 C586.8,238.3 582.7,234.8 578,235.1 L573.2,235.4 C568.5,235.7 565,239.8 565.3,244.5 L590.9,617.1 L590.9,617.1 L590.9,617.1 L673.8,666.3 C677.8,668.7 683,667.4 685.4,663.3 L687.8,659.2 C690.3,655.3 689,650.1 684.9,647.7 z" fill="#823017" id="XMLID_133_"/>
      <path d="M556,556.6 L576.2,543.5 C560,533.7 549.1,515.9 549.1,495.6 C549.1,472.2 563.5,452.2 583.8,443.8 L560.4,431.2 C540,445.4 526.7,468.9 526.7,495.6 C526.7,520.2 538.2,542.2 556,556.6 z" fill="#9D401E" id="XMLID_151_"/>
      <path d="M533.7,495.5 C533.7,470.1 545.8,447.6 564.5,433.3 L560.5,431.1 C540.1,445.3 526.8,468.8 526.8,495.5 C526.8,520.2 538.2,542.2 556.1,556.6 L560.1,554 C543.9,539.6 533.7,518.7 533.7,495.5 z" fill="#9D401E" id="XMLID_213_" opacity="0.46"/>
      <path d="M540.7,450.8 C547.8,454.1 555.4,456.7 563.2,458.3 C568.8,452 575.9,446.9 583.8,443.6 L560.4,431 C552.8,436.4 546.1,443.1 540.7,450.8 z" fill="#823017" id="XMLID_22_"/>
      <path d="M556,556.6 L576.2,543.5 C571.4,540.6 567,536.9 563.2,532.7 C555.4,534.4 547.8,536.9 540.7,540.2 C545,546.3 550.2,551.9 556,556.6 z" fill="#823017" id="XMLID_17_"/>
      <path d="M556,556.6 L576.2,543.5 C560,533.7 549.1,515.9 549.1,495.6 C549.1,472.2 563.5,452.2 583.8,443.8 L560.4,431.2 C540,445.4 526.7,468.9 526.7,495.6 C526.7,520.2 538.2,542.2 556,556.6 z" fill-opacity="0" stroke="#2D2D2D" stroke-width="6" stroke-linecap="round" stroke-linejoin="round" stroke-miterlimit="10" id="XMLID_176_"/>
      <path d="M684.9,647.7 L611.9,604.3 L587.1,243 C586.8,238.3 582.7,234.8 578,235.1 L573.2,235.4 C568.5,235.7 565,239.8 565.3,244.5 L590.9,617.1 L590.9,617.1 L590.9,617.1 L673.8,666.3 C677.8,668.7 683,667.4 685.4,663.3 L687.8,659.2 C690.3,655.3 689,650.1 684.9,647.7 z" fill-opacity="0" stroke="#2D2D2D" stroke-width="6" stroke-linecap="round" stroke-linejoin="round" stroke-miterlimit="10" id="XMLID_158_"/>
      <path d="M696,343.2 L623,386.6 L598.2,747.9 C597.9,752.6 593.8,756.1 589.1,755.8 L584.3,755.5 C579.6,755.2 576.1,751.1 576.4,746.4 L602,373.7 L602,373.7 L602,373.7 L684.9,324.5 C688.9,322.1 694.1,323.4 696.5,327.5 L698.9,331.6 C701.4,335.6 700,340.9 696,343.2 z" fill="#823017" id="XMLID_160_"/>
      <path d="M696,343.2 L623,386.6 L598.2,747.9 C597.9,752.6 593.8,756.1 589.1,755.8 L584.3,755.5 C579.6,755.2 576.1,751.1 576.4,746.4 L602,373.7 L602,373.7 L602,373.7 L684.9,324.5 C688.9,322.1 694.1,323.4 696.5,327.5 L698.9,331.6 C701.4,335.6 700,340.9 696,343.2 z" fill-opacity="0" stroke="#2D2D2D" stroke-width="6" stroke-linecap="round" stroke-linejoin="round" stroke-miterlimit="10" id="XMLID_152_"/>
      <path d="M586,253.2 C530.9,253.2 486.2,297.9 486.2,353 C486.2,408.1 530.9,452.8 586,452.8 C641.1,452.8 685.8,408.1 685.8,353 C685.8,297.9 641.1,253.2 586,253.2 z M586,429.9 C543.5,429.9 509.1,395.5 509.1,353 C509.1,310.5 543.5,276 586,276 C628.5,276 662.9,310.5 662.9,352.9 C662.9,395.3 628.4,429.9 586,429.9 z" fill="#9D401E" id="XMLID_41_"/>
      <g id="XMLID_204_" opacity="0.6">
        <path d="M494.2,353 C494.2,299.2 536.7,255.4 590,253.3 C588.7,253.2 587.3,253.2 586,253.2 C530.9,253.2 486.2,297.9 486.2,353 C486.2,408.1 530.9,452.8 586,452.8 C587.3,452.8 588.7,452.8 590,452.7 C536.7,450.6 494.2,406.7 494.2,353 z" fill="#9D401E" id="XMLID_208_"/>
        <path d="M590,429.8 C591.3,429.9 592.7,429.9 594,429.9 C636.5,429.9 670.9,395.5 670.9,353 C670.9,310.5 636.4,276 594,276 C592.7,276 591.3,276 590,276.1 C630.6,278.2 662.9,311.8 662.9,352.9 C662.9,394 630.6,427.7 590,429.8 z" fill="#9D401E" id="XMLID_227_"/>
      </g>
      <path d="M586,253.2 C530.9,253.2 486.2,297.9 486.2,353 C486.2,408.1 530.9,452.8 586,452.8 C641.1,452.8 685.8,408.1 685.8,353 C685.8,297.9 641.1,253.2 586,253.2 z M586,429.9 C543.5,429.9 509.1,395.5 509.1,353 C509.1,310.5 543.5,276 586,276 C628.5,276 662.9,310.5 662.9,352.9 C662.9,395.3 628.4,429.9 586,429.9 z" fill-opacity="0" stroke="#2D2D2D" stroke-width="6" stroke-linecap="round" stroke-linejoin="round" stroke-miterlimit="10" id="XMLID_63_"/>
      <path d="M685.8,353 C685.8,408.118 641.118,452.8 586,452.8 C530.882,452.8 486.2,408.118 486.2,353 C486.2,297.882 530.882,253.2 586,253.2 C641.118,253.2 685.8,297.882 685.8,353 z" fill-opacity="0" stroke="#2D2D2D" stroke-width="6" stroke-linecap="round" stroke-linejoin="round" stroke-miterlimit="10" id="XMLID_5_"/>
      <path d="M662.9,353 C662.9,395.471 628.471,429.9 586,429.9 C543.529,429.9 509.1,395.471 509.1,353 C509.1,310.529 543.529,276.1 586,276.1 C628.471,276.1 662.9,310.529 662.9,353 z" fill="#A4ECFF" id="XMLID_66_" opacity="0.81"/>
      <path d="M662.9,353 C662.9,395.471 628.471,429.9 586,429.9 C543.529,429.9 509.1,395.471 509.1,353 C509.1,310.529 543.529,276.1 586,276.1 C628.471,276.1 662.9,310.529 662.9,353 z" fill-opacity="0" stroke="#2D2D2D" stroke-width="6" stroke-linecap="round" stroke-linejoin="round" stroke-miterlimit="10" id="XMLID_64_"/>
      <path d="M586,538.2 C530.9,538.2 486.2,582.9 486.2,638 C486.2,693.1 530.9,737.8 586,737.8 C641.1,737.8 685.8,693.1 685.8,638 C685.7,582.9 641.1,538.2 586,538.2 z M586,714.9 C543.5,714.9 509.1,680.5 509.1,638 C509.1,595.5 543.6,561.1 586,561.1 C628.5,561.1 662.9,595.6 662.9,638 C662.9,680.5 628.4,714.9 586,714.9 z" fill="#9D401E" id="XMLID_157_"/>
      <g id="XMLID_179_" opacity="0.6">
        <g>
          <path d="M590,714.8 C591.3,714.9 592.7,714.9 594,714.9 C636.5,714.9 670.9,680.4 670.9,638 C670.9,595.6 636.4,561 594,561 C592.7,561 591.3,561 590,561.1 C630.6,563.2 662.9,596.8 662.9,637.9 C662.9,679 630.6,712.7 590,714.8 z" fill="#9D401E"/>
          <path d="M494.2,638 C494.2,584.2 536.7,540.4 590,538.3 C588.7,538.2 587.3,538.2 586,538.2 C530.9,538.2 486.2,582.9 486.2,638 C486.2,693.1 530.9,737.8 586,737.8 C587.3,737.8 588.7,737.8 590,737.7 C536.7,735.6 494.2,691.7 494.2,638 z" fill="#9D401E"/>
        </g>
      </g>
      <path d="M586,538.2 C530.9,538.2 486.2,582.9 486.2,638 C486.2,693.1 530.9,737.8 586,737.8 C641.1,737.8 685.8,693.1 685.8,638 C685.7,582.9 641.1,538.2 586,538.2 z M586,714.9 C543.5,714.9 509.1,680.5 509.1,638 C509.1,595.5 543.6,561.1 586,561.1 C628.5,561.1 662.9,595.6 662.9,638 C662.9,680.5 628.4,714.9 586,714.9 z" fill-opacity="0" stroke="#2D2D2D" stroke-width="6" stroke-linecap="round" stroke-linejoin="round" stroke-miterlimit="10" id="XMLID_153_"/>
      <path d="M662.9,638 C662.9,680.471 628.471,714.9 586,714.9 C543.529,714.9 509.1,680.471 509.1,638 C509.1,595.529 543.529,561.1 586,561.1 C628.471,561.1 662.9,595.529 662.9,638 z" fill="#A4ECFF" id="XMLID_146_" opacity="0.81"/>
      <path d="M662.9,638 C662.9,680.471 628.471,714.9 586,714.9 C543.529,714.9 509.1,680.471 509.1,638 C509.1,595.529 543.529,561.1 586,561.1 C628.471,561.1 662.9,595.529 662.9,638 z" fill-opacity="0" stroke="#2D2D2D" stroke-width="6" stroke-linecap="round" stroke-linejoin="round" stroke-miterlimit="10" id="XMLID_137_"/>
      <g id="XMLID_173_" opacity="0.71">
        <path d="M546.7,353.8 C546.6,372.5 550,386.3 543.5,386.2 C537.3,386.3 523.5,372.5 523.7,353.8 C523.6,335.1 537.3,321.3 543.5,321.4 C550,321.2 546.5,335 546.7,353.8 z" fill="#FFFFFF"/>
      </g>
      <g id="XMLID_178_" opacity="0.71">
        <path d="M551.8,638 C551.7,656.7 555.1,670.5 548.6,670.4 C542.4,670.5 528.6,656.7 528.8,638 C528.7,619.3 542.4,605.5 548.6,605.6 C555.1,605.5 551.7,619.2 551.8,638 z" fill="#FFFFFF"/>
      </g>
    </g>
    <g>
      <path d="M410.8,515.6 L409.4,515.6 C407.1,515.6 405.2,513.7 405.2,511.4 L405.2,504.6 C405.2,502.3 407.1,500.4 409.4,500.4 L410.8,500.4 C413.1,500.4 415,502.3 415,504.6 L415,511.4 C415,513.7 413.1,515.6 410.8,515.6 z" fill-opacity="0" stroke="#2D2D2D" stroke-width="6" stroke-linecap="round" stroke-linejoin="round" stroke-miterlimit="10" id="XMLID_174_"/>
      <path d="M410.8,515.6 L409.4,515.6 C407.1,515.6 405.2,513.7 405.2,511.4 L405.2,504.6 C405.2,502.3 407.1,500.4 409.4,500.4 L410.8,500.4 C413.1,500.4 415,502.3 415,504.6 L415,511.4 C415,513.7 413.1,515.6 410.8,515.6 z" fill="#2D2D2D" id="XMLID_181_"/>
      <g id="XMLID_106_">
        <path d="M315.3,268.4 L315.3,321.4 L387.3,321.4 L387.3,268.4 L315.3,268.4 z M377.3,302.4 L325.3,302.4 L325.3,278.4 L377.3,278.4 L377.3,302.4 z" fill="#FFFFFF" id="XMLID_29_"/>
        <path d="M315.3,268.4 L315.3,321.4 L387.3,321.4 L387.3,268.4 L315.3,268.4 z M377.3,302.4 L325.3,302.4 L325.3,278.4 L377.3,278.4 L377.3,302.4 z" fill-opacity="0" stroke="#2D2D2D" stroke-width="6" stroke-linecap="round" stroke-linejoin="round" stroke-miterlimit="10" id="XMLID_37_"/>
        <path d="M351.3,290.4 L351.3,302.4" fill-opacity="0" stroke="#2D2D2D" stroke-width="6" stroke-linecap="round" stroke-linejoin="round" stroke-miterlimit="10" id="XMLID_38_"/>
        <path d="M322.3,434.5 L380.3,434.5 L380.3,458.3 L322.3,458.3 z" fill="#E0E0E0" id="XMLID_40_"/>
        <path d="M322.3,434.5 L380.3,434.5 L380.3,458.3 L322.3,458.3 z" fill-opacity="0" stroke="#2D2D2D" stroke-width="6" stroke-linecap="round" stroke-linejoin="round" stroke-miterlimit="10" id="XMLID_32_"/>
        <path d="M322.3,555.5 L380.3,555.5 L380.3,579.3 L322.3,579.3 z" fill="#E0E0E0" id="XMLID_50_"/>
        <path d="M322.3,555.5 L380.3,555.5 L380.3,579.3 L322.3,579.3 z" fill-opacity="0" stroke="#2D2D2D" stroke-width="6" stroke-linecap="round" stroke-linejoin="round" stroke-miterlimit="10" id="XMLID_49_"/>
        <path d="M408.3,507.5 C408.3,538.98 382.78,564.5 351.3,564.5 C319.82,564.5 294.3,538.98 294.3,507.5 C294.3,476.02 319.82,450.5 351.3,450.5 C382.78,450.5 408.3,476.02 408.3,507.5 z" fill="#FFFFFF" id="XMLID_28_"/>
        <path d="M408.3,507.5 C408.3,538.98 382.78,564.5 351.3,564.5 C319.82,564.5 294.3,538.98 294.3,507.5 C294.3,476.02 319.82,450.5 351.3,450.5 C382.78,450.5 408.3,476.02 408.3,507.5 z" fill-opacity="0" stroke="#2D2D2D" stroke-width="6" stroke-linecap="round" stroke-linejoin="round" stroke-miterlimit="10" id="XMLID_27_"/>
        <path d="M396.3,507.5 C396.3,532.353 376.153,552.5 351.3,552.5 C326.447,552.5 306.3,532.353 306.3,507.5 C306.3,482.647 326.447,462.5 351.3,462.5 C376.153,462.5 396.3,482.647 396.3,507.5 z" fill="#42494F" id="XMLID_39_"/>
        <path d="M396.3,507.5 C396.3,532.353 376.153,552.5 351.3,552.5 C326.447,552.5 306.3,532.353 306.3,507.5 C306.3,482.647 326.447,462.5 351.3,462.5 C376.153,462.5 396.3,482.647 396.3,507.5 z" fill-opacity="0" stroke="#2D2D2D" stroke-width="6" stroke-linecap="round" stroke-linejoin="round" stroke-miterlimit="10" id="XMLID_42_"/>
        <path d="M330.3,321.5 L372.3,321.5 L372.3,442.9 L330.3,442.9 z" fill="#3C3A47" id="XMLID_23_"/>
        <path d="M329.8,431.1 L372.1,431.1 L372.1,442.6 L329.8,442.6 z" fill="#3C3A47" id="XMLID_2_" opacity="0.3"/>
        <path d="M329.8,317.7 L372.1,317.7 L372.1,329.2 L329.8,329.2 z" fill="#3C3A47" id="XMLID_6_" opacity="0.3"/>
        <path d="M330.3,321.5 L372.3,321.5 L372.3,442.9 L330.3,442.9 z" fill-opacity="0" stroke="#2D2D2D" stroke-width="6" stroke-linecap="round" stroke-linejoin="round" stroke-miterlimit="10" id="XMLID_19_"/>
        <path d="M351.3,754.9 L351.3,754.9 C339.4,754.9 329.8,748.3 329.8,736.4 L329.8,573.5 L372.8,573.5 L372.8,736.4 C372.8,748.2 363.1,754.9 351.3,754.9 z" fill="#3C3A47" id="XMLID_46_"/>
        <path d="M329.8,573.5 L372.1,573.5 L372.1,585 L329.8,585 z" fill="#3C3A47" id="XMLID_1_" opacity="0.3"/>
        <path d="M351.3,754.9 L351.3,754.9 C339.4,754.9 329.8,748.3 329.8,736.4 L329.8,573.5 L372.8,573.5 L372.8,736.4 C372.8,748.2 363.1,754.9 351.3,754.9 z" fill-opacity="0" stroke="#2D2D2D" stroke-width="6" stroke-linecap="round" stroke-linejoin="round" stroke-miterlimit="10" id="XMLID_45_"/>
        <g id="XMLID_35_">
          <g id="XMLID_33_">
            <path d="M317.7,505.7 L317.7,497.7 L318.7,496.8 L319.6,497.7 L319.6,505.7 L318.7,506.7 z" fill="#373E42" id="XMLID_83_"/>
            <path d="M328.4,505.7 L328.4,497.7 L329.4,496.8 L330.3,497.7 L330.3,505.7 L329.4,506.7 z" fill="#373E42" id="XMLID_82_"/>
            <path d="M320,497.3 L319.1,496.4 L320,495.5 L328,495.5 L328.9,496.4 L328,497.3 z" fill="#373E42" id="XMLID_81_"/>
            <path d="M320,508 L319.1,507.1 L320,506.2 L328,506.2 L328.9,507.1 L328,508 z" fill="#373E42" id="XMLID_80_"/>
            <path d="M317.7,516.4 L317.7,508.4 L318.7,507.5 L319.6,508.4 L319.6,516.4 L318.7,517.3 z" fill="#373E42" id="XMLID_79_"/>
            <path d="M328.4,516.4 L328.4,508.4 L329.4,507.5 L330.3,508.4 L330.3,516.4 L329.4,517.3 z" fill="#373E42" id="XMLID_78_"/>
            <path d="M320,518.7 L319.1,517.8 L320,516.9 L328,516.9 L328.9,517.8 L328,518.7 z" fill="#373E42" id="XMLID_65_"/>
          </g>
          <g id="XMLID_44_">
            <path d="M333.5,505.7 L333.5,497.7 L334.4,496.8 L335.3,497.7 L335.3,505.7 L334.4,506.7 z" fill="#373E42" id="XMLID_85_"/>
            <path d="M344.1,505.7 L344.1,497.7 L345.1,496.8 L346,497.7 L346,505.7 L345.1,506.7 z" fill="#76D676" id="XMLID_84_"/>
            <path d="M335.7,497.3 L334.8,496.4 L335.7,495.5 L343.7,495.5 L344.6,496.4 L343.7,497.3 z" fill="#373E42" id="XMLID_56_"/>
            <path d="M335.7,508 L334.8,507.1 L335.7,506.2 L343.7,506.2 L344.6,507.1 L343.7,508 z" fill="#373E42" id="XMLID_54_"/>
            <path d="M333.5,516.4 L333.5,508.4 L334.4,507.5 L335.3,508.4 L335.3,516.4 L334.4,517.3 z" fill="#373E42" id="XMLID_51_"/>
            <path d="M344.1,516.4 L344.1,508.4 L345.1,507.5 L346,508.4 L346,516.4 L345.1,517.3 z" fill="#76D676" id="XMLID_48_"/>
            <path d="M335.7,518.7 L334.8,517.8 L335.7,516.9 L343.7,516.9 L344.6,517.8 L343.7,518.7 z" fill="#373E42" id="XMLID_47_"/>
          </g>
          <g id="XMLID_94_">
            <path d="M355,505.7 L355,497.7 L355.9,496.8 L356.8,497.7 L356.8,505.7 L355.9,506.7 z" fill="#76D676" id="XMLID_101_"/>
            <path d="M365.7,505.7 L365.7,497.7 L366.6,496.8 L367.5,497.7 L367.5,505.7 L366.6,506.7 z" fill="#76D676" id="XMLID_100_"/>
            <path d="M357.2,497.3 L356.3,496.4 L357.2,495.5 L365.2,495.5 L366.1,496.4 L365.2,497.3 z" fill="#76D676" id="XMLID_99_"/>
            <path d="M357.2,508 L356.3,507.1 L357.2,506.2 L365.2,506.2 L366.1,507.1 L365.2,508 z" fill="#373E42" id="XMLID_98_"/>
            <path d="M355,516.4 L355,508.4 L355.9,507.5 L356.8,508.4 L356.8,516.4 L355.9,517.3 z" fill="#76D676" id="XMLID_97_"/>
            <path d="M365.7,516.4 L365.7,508.4 L366.6,507.5 L367.5,508.4 L367.5,516.4 L366.6,517.3 z" fill="#76D676" id="XMLID_96_"/>
            <path d="M357.2,518.7 L356.3,517.8 L357.2,516.9 L365.2,516.9 L366.1,517.8 L365.2,518.7 z" fill="#76D676" id="XMLID_95_"/>
          </g>
          <g id="XMLID_86_">
            <path d="M370.7,505.7 L370.7,497.7 L371.6,496.8 L372.5,497.7 L372.5,505.7 L371.6,506.7 z" fill="#76D676" id="XMLID_93_"/>
            <path d="M381.4,505.7 L381.4,497.7 L382.3,496.8 L383.2,497.7 L383.2,505.7 L382.3,506.7 z" fill="#76D676" id="XMLID_92_"/>
            <path d="M372.9,497.3 L372,496.4 L372.9,495.5 L380.9,495.5 L381.9,496.4 L380.9,497.3 z" fill="#76D676" id="XMLID_91_"/>
            <path d="M372.9,508 L372,507.1 L372.9,506.2 L380.9,506.2 L381.9,507.1 L380.9,508 z" fill="#76D676" id="XMLID_90_"/>
            <path d="M370.7,516.4 L370.7,508.4 L371.6,507.5 L372.5,508.4 L372.5,516.4 L371.6,517.3 z" fill="#76D676" id="XMLID_89_"/>
            <path d="M381.4,516.4 L381.4,508.4 L382.3,507.5 L383.2,508.4 L383.2,516.4 L382.3,517.3 z" fill="#76D676" id="XMLID_88_"/>
            <path d="M372.9,518.7 L372,517.8 L372.9,516.9 L380.9,516.9 L381.9,517.8 L380.9,518.7 z" fill="#76D676" id="XMLID_87_"/>
          </g>
          <path d="M349.4,502.7 L351.2,502.7 L351.2,504.5 L349.4,504.5 z" fill="#76D676" id="XMLID_102_"/>
          <path d="M349.4,509.7 L351.2,509.7 L351.2,511.5 L349.4,511.5 z" fill="#76D676" id="XMLID_104_"/>
        </g>
        <path d="M351.4,306.4 L351.4,306.4 C350,306.4 348.9,305.3 348.9,303.9 L348.9,303.6 C348.9,302.2 350,301.1 351.4,301.1 L351.4,301.1 C352.8,301.1 353.9,302.2 353.9,303.6 L353.9,303.9 C353.9,305.3 352.8,306.4 351.4,306.4 z" fill-opacity="0" stroke="#2D2D2D" stroke-width="6" stroke-linecap="round" stroke-linejoin="round" stroke-miterlimit="10" id="XMLID_67_"/>
        <g id="XMLID_105_">
          <path d="M357.2,628.5 C357.2,631.814 354.558,634.5 351.3,634.5 C348.042,634.5 345.4,631.814 345.4,628.5 C345.4,625.186 348.042,622.5 351.3,622.5 C354.558,622.5 357.2,625.186 357.2,628.5 z" fill="#FFFFFF" id="XMLID_103_"/>
          <g id="XMLID_72_">
            <path d="M357.2,628.5 C357.2,631.814 354.558,634.5 351.3,634.5 C348.042,634.5 345.4,631.814 345.4,628.5 C345.4,625.186 348.042,622.5 351.3,622.5 C354.558,622.5 357.2,625.186 357.2,628.5 z" fill="#D59729"/>
            <path d="M357.2,628.5 C357.2,631.814 354.558,634.5 351.3,634.5 C348.042,634.5 345.4,631.814 345.4,628.5 C345.4,625.186 348.042,622.5 351.3,622.5 C354.558,622.5 357.2,625.186 357.2,628.5 z" fill-opacity="0" stroke="#2D2D2D" stroke-width="6" stroke-linecap="round" stroke-linejoin="round" stroke-miterlimit="10"/>
          </g>
        </g>
        <g id="XMLID_107_">
          <path d="M357.2,654.2 C357.2,657.514 354.558,660.2 351.3,660.2 C348.042,660.2 345.4,657.514 345.4,654.2 C345.4,650.886 348.042,648.2 351.3,648.2 C354.558,648.2 357.2,650.886 357.2,654.2 z" fill="#D59729" id="XMLID_109_"/>
          <path d="M357.2,654.2 C357.2,657.514 354.558,660.2 351.3,660.2 C348.042,660.2 345.4,657.514 345.4,654.2 C345.4,650.886 348.042,648.2 351.3,648.2 C354.558,648.2 357.2,650.886 357.2,654.2 z" fill-opacity="0" stroke="#2D2D2D" stroke-width="6" stroke-linecap="round" stroke-linejoin="round" stroke-miterlimit="10" id="XMLID_108_"/>
        </g>
        <g id="XMLID_147_">
          <path d="M357.2,677.8 C357.2,681.114 354.558,683.8 351.3,683.8 C348.042,683.8 345.4,681.114 345.4,677.8 C345.4,674.486 348.042,671.8 351.3,671.8 C354.558,671.8 357.2,674.486 357.2,677.8 z" fill="#D59729" id="XMLID_149_"/>
          <path d="M357.2,677.8 C357.2,681.114 354.558,683.8 351.3,683.8 C348.042,683.8 345.4,681.114 345.4,677.8 C345.4,674.486 348.042,671.8 351.3,671.8 C354.558,671.8 357.2,674.486 357.2,677.8 z" fill-opacity="0" stroke="#2D2D2D" stroke-width="6" stroke-linecap="round" stroke-linejoin="round" stroke-miterlimit="10" id="XMLID_148_"/>
        </g>
      </g>
      <g id="XMLID_180_" opacity="0.15">
        <path d="M323.7,508 C323.6,522.7 327.5,533.4 324,533.3 C320.7,533.4 311.2,522.6 311.3,508 C311.2,493.3 320.7,482.6 324,482.7 C327.6,482.6 323.6,493.3 323.7,508 z" fill="#FFFFFF"/>
      </g>
    </g>
  </g>
</svg>
