<?xml version="1.0" encoding="UTF-8"?>
<!DOCTYPE svg PUBLIC "-//W3C//DTD SVG 1.1//EN" "http://www.w3.org/Graphics/SVG/1.1/DTD/svg11.dtd">
<svg version="1.1" xmlns="http://www.w3.org/2000/svg" xmlns:xlink="http://www.w3.org/1999/xlink" x="0" y="0" width="1000" height="1000" viewBox="0, 0, 1000, 1000">
  <defs>
    <linearGradient id="Gradient_1" gradientUnits="userSpaceOnUse" x1="502.686" y1="552.985" x2="502.686" y2="488.985">
      <stop offset="0" stop-color="#57AA63"/>
      <stop offset="1" stop-color="#9AA642"/>
    </linearGradient>
    <linearGradient id="Gradient_2" gradientUnits="userSpaceOnUse" x1="-348.003" y1="292.178" x2="-275.672" y2="292.178">
      <stop offset="0" stop-color="#57AA63"/>
      <stop offset="1" stop-color="#9AA642"/>
    </linearGradient>
  </defs>
  <g id="Layer_1">
    <path d="M0,0 L1000,0 L1000,1000 L0,1000 z" fill="#FE3E4B" id="XMLID_71_"/>
    <path d="M890.8,503.8 C890.8,715.325 719.325,886.8 507.8,886.8 C296.275,886.8 124.8,715.325 124.8,503.8 C124.8,292.275 296.275,120.8 507.8,120.8 C719.325,120.8 890.8,292.275 890.8,503.8 z" fill="#FC8B3F" id="XMLID_1_" opacity="0.17"/>
    <path d="M735.6,500 C735.6,630.118 630.118,735.6 500,735.6 C369.882,735.6 264.4,630.118 264.4,500 C264.4,369.882 369.882,264.4 500,264.4 C630.118,264.4 735.6,369.882 735.6,500 z" fill="#FF9F2C" id="XMLID_3_" opacity="0.17"/>
    <g>
      <path d="M596.7,776.8 C596.7,786.299 555.286,794 504.2,794 C453.114,794 411.7,786.299 411.7,776.8 C411.7,767.301 453.114,759.6 504.2,759.6 C555.286,759.6 596.7,767.301 596.7,776.8 z" fill="#430B48" id="XMLID_22_"/>
      <path d="M475.2,660.3 C451.7,660.3 432.7,677.7 432.7,699.3 L432.7,700.7 C432.7,742.8 464,776.8 502.6,776.8 C541.2,776.8 572.5,742.7 572.5,700.7 L572.5,699.3 C572.5,677.8 553.5,660.3 530,660.3 L475.2,660.3 z" fill="#E0E0E0" id="XMLID_104_"/>
      <path d="M552,674 C552,681.566 529.928,687.7 502.7,687.7 C475.472,687.7 453.4,681.566 453.4,674 C453.4,666.434 475.472,660.3 502.7,660.3 C529.928,660.3 552,666.434 552,674 z" fill="#CFC3D8" id="XMLID_24_"/>
      <path d="M539.5,672.7 C539.5,678.333 523.024,682.9 502.7,682.9 C482.376,682.9 465.9,678.333 465.9,672.7 C465.9,667.067 482.376,662.5 502.7,662.5 C523.024,662.5 539.5,667.067 539.5,672.7 z" fill="#430B48" id="XMLID_10_"/>
      <path d="M502.7,744.7 C467.8,744.7 438.9,727.9 433.6,691.5 C433,694 432.7,696.6 432.7,699.3 L432.7,700.7 C432.7,742.8 464,776.8 502.6,776.8 C541.2,776.8 572.5,742.7 572.5,700.7 L572.5,699.3 C572.5,696.6 572.2,694 571.6,691.5 C566.5,727.9 537.6,744.7 502.7,744.7 z" fill="#CFC3D8" id="XMLID_188_"/>
      <path d="M475.2,660.3 C451.7,660.3 432.7,677.7 432.7,699.3 L432.7,700.7 C432.7,742.8 464,776.8 502.6,776.8 C541.2,776.8 572.5,742.7 572.5,700.7 L572.5,699.3 C572.5,677.8 553.5,660.3 530,660.3 L475.2,660.3 z" fill-opacity="0" stroke="#430B48" stroke-width="8" stroke-linecap="round" stroke-linejoin="round" stroke-miterlimit="10" id="XMLID_184_"/>
      <path d="M612.5,285.1 L648.5,285.1" fill-opacity="0" stroke="#430B48" stroke-width="8" stroke-linecap="round" stroke-linejoin="round" stroke-miterlimit="10" id="XMLID_17_"/>
      <path d="M680.5,285.1 C680.5,293.937 673.337,301.1 664.5,301.1 C655.663,301.1 648.5,293.937 648.5,285.1 C648.5,276.263 655.663,269.1 664.5,269.1 C673.337,269.1 680.5,276.263 680.5,285.1 z" fill="#BFB0CC" id="XMLID_53_"/>
      <path d="M680.5,285.1 C680.5,293.937 673.337,301.1 664.5,301.1 C655.663,301.1 648.5,293.937 648.5,285.1 C648.5,276.263 655.663,269.1 664.5,269.1 C673.337,269.1 680.5,276.263 680.5,285.1 z" fill-opacity="0" stroke="#430B48" stroke-width="8" stroke-linecap="round" stroke-linejoin="round" stroke-miterlimit="10" id="XMLID_16_"/>
      <g id="XMLID_42_">
        <path d="M626,522.5 C625.1,515 625.4,507.5 626.8,500.1 C627.7,496.3 631.8,493.3 635.4,493.5 L635.4,493.5 C639.1,493.6 642.9,496.8 643.6,500.7 C644.5,508.2 644.2,515.7 642.8,523.1 C641.9,526.9 637.8,529.9 634.2,529.7 L634.2,529.7 C630.5,529.6 626.6,526.4 626,522.5 z" fill="#4B1151" id="XMLID_50_"/>
        <g id="XMLID_101_">
          <path d="M647.3,522.1 C644.8,515.2 643.2,507.9 643,500.5 C642.9,496.7 646.2,492.9 649.8,492.2 L649.8,492.2 C653.4,491.5 657.8,493.7 659.2,497.3 C661.9,504.2 663.3,511.5 663.5,518.9 C663.6,522.7 660.3,526.5 656.7,527.2 L656.7,527.2 C653.2,527.9 648.8,525.7 647.3,522.1 z" fill="#430B48" id="XMLID_49_"/>
          <path d="M667.6,517 C663.6,511 660.4,504.4 658.5,497.4 C657.5,493.8 659.8,489.4 663,488 L663,488 C666.4,486.5 671,487.5 673.1,490.6 C677.2,496.5 680.3,503.2 682.2,510.2 C683.2,513.8 680.9,518.2 677.7,519.6 L677.7,519.6 C674.5,521.1 669.8,520 667.6,517 z" fill="#4B1151" id="XMLID_48_"/>
          <path d="M685.8,507.5 C680.6,502.7 676.1,497.1 672.7,490.9 C670.9,487.6 672.2,483 674.9,480.9 L674.9,480.9 C677.9,478.6 682.4,478.7 685.2,481.1 C690.5,485.8 694.9,491.5 698.3,497.7 C700.1,501 698.8,505.6 696.1,507.7 L696.1,507.7 C693.3,509.9 688.6,509.9 685.8,507.5 z" fill="#4B1151" id="XMLID_47_"/>
          <path d="M701.3,494.3 C695.3,490.9 689.7,486.6 685.1,481.4 C682.7,478.7 682.8,474 684.9,471.4 L684.9,471.4 C687.3,468.5 691.5,467.6 694.7,469.3 C700.8,472.6 706.3,477 710.9,482.2 C713.3,484.9 713.2,489.6 711.1,492.2 L711.1,492.2 C709,494.9 704.5,496 701.3,494.3 z" fill="#4B1151" id="XMLID_46_"/>
          <path d="M713.5,477.9 C707,476 700.7,473.2 695.1,469.3 C692.2,467.3 691.2,462.8 692.6,459.8 L692.6,459.8 C694.3,456.4 698,454.6 701.5,455.6 C708.1,457.4 714.3,460.3 719.9,464.2 C722.8,466.2 723.8,470.7 722.4,473.7 L722.4,473.7 C721,476.7 716.9,478.8 713.5,477.9 z" fill="#4B1151" id="XMLID_45_"/>
          <path d="M721.7,458.9 C715,458.6 708.4,457.5 702.2,455.1 C699,453.9 697,449.8 697.6,446.6 L697.6,446.6 C698.5,442.8 701.6,440.4 705,440.5 C711.7,440.6 718.3,441.9 724.5,444.3 C727.7,445.5 729.7,449.6 729.1,452.8 L729.1,452.8 C728.6,455.9 725.2,458.9 721.7,458.9 z" fill="#4B1151" id="XMLID_44_"/>
          <path d="M724.5,439.3 C718,439.7 711.5,439.1 705.2,437.5 C701.9,436.5 699.6,432.9 699.9,429.7 L699.9,429.7 C700.4,425.8 703.2,423.4 706.6,423 C713.1,422.6 719.6,423.2 725.9,424.8 C729.2,425.8 731.5,429.4 731.2,432.6 L731.2,432.6 C730.9,435.8 727.9,439 724.5,439.3 z" fill="#4B1151" id="XMLID_43_"/>
        </g>
      </g>
      <g id="XMLID_97_">
        <path d="M626,522.5 C625.1,515 625.4,507.5 626.8,500.1 C627.7,496.3 631.8,493.3 635.4,493.5 L635.4,493.5 C639.1,493.6 642.9,496.8 643.6,500.7 C644.5,508.2 644.2,515.7 642.8,523.1 C641.9,526.9 637.8,529.9 634.2,529.7 L634.2,529.7 C630.5,529.6 626.6,526.4 626,522.5 z" fill-opacity="0" stroke="#430B48" stroke-width="6" stroke-linecap="round" stroke-linejoin="round" stroke-miterlimit="10" id="XMLID_68_"/>
        <path d="M647.3,522.1 C644.8,515.2 643.2,507.9 643,500.5 C642.9,496.7 646.2,492.9 649.8,492.2 L649.8,492.2 C653.4,491.5 657.8,493.7 659.2,497.3 C661.9,504.2 663.3,511.5 663.5,518.9 C663.6,522.7 660.3,526.5 656.7,527.2 L656.7,527.2 C653.2,527.9 648.8,525.7 647.3,522.1 z" fill-opacity="0" stroke="#430B48" stroke-width="6" stroke-linecap="round" stroke-linejoin="round" stroke-miterlimit="10" id="XMLID_66_"/>
        <path d="M667.6,517 C663.6,511 660.4,504.4 658.5,497.4 C657.5,493.8 659.8,489.4 663,488 L663,488 C666.4,486.5 671,487.5 673.1,490.6 C677.2,496.5 680.3,503.2 682.2,510.2 C683.2,513.8 680.9,518.2 677.7,519.6 L677.7,519.6 C674.5,521.1 669.8,520 667.6,517 z" fill-opacity="0" stroke="#430B48" stroke-width="6" stroke-linecap="round" stroke-linejoin="round" stroke-miterlimit="10" id="XMLID_65_"/>
        <path d="M685.8,507.5 C680.6,502.7 676.1,497.1 672.7,490.9 C670.9,487.6 672.2,483 674.9,480.9 L674.9,480.9 C677.9,478.6 682.4,478.7 685.2,481.1 C690.5,485.8 694.9,491.5 698.3,497.7 C700.1,501 698.8,505.6 696.1,507.7 L696.1,507.7 C693.3,509.9 688.6,509.9 685.8,507.5 z" fill-opacity="0" stroke="#430B48" stroke-width="6" stroke-linecap="round" stroke-linejoin="round" stroke-miterlimit="10" id="XMLID_64_"/>
        <path d="M701.3,494.3 C695.3,490.9 689.7,486.6 685.1,481.4 C682.7,478.7 682.8,474 684.9,471.4 L684.9,471.4 C687.3,468.5 691.5,467.6 694.7,469.3 C700.8,472.6 706.3,477 710.9,482.2 C713.3,484.9 713.2,489.6 711.1,492.2 L711.1,492.2 C709,494.9 704.5,496 701.3,494.3 z" fill-opacity="0" stroke="#430B48" stroke-width="6" stroke-linecap="round" stroke-linejoin="round" stroke-miterlimit="10" id="XMLID_63_"/>
        <path d="M713.5,477.9 C707,476 700.7,473.2 695.1,469.3 C692.2,467.3 691.2,462.8 692.6,459.8 L692.6,459.8 C694.3,456.4 698,454.6 701.5,455.6 C708.1,457.4 714.3,460.3 719.9,464.2 C722.8,466.2 723.8,470.7 722.4,473.7 L722.4,473.7 C721,476.7 716.9,478.8 713.5,477.9 z" fill-opacity="0" stroke="#430B48" stroke-width="6" stroke-linecap="round" stroke-linejoin="round" stroke-miterlimit="10" id="XMLID_62_"/>
        <path d="M721.7,458.9 C715,458.6 708.4,457.5 702.2,455.1 C699,453.9 697,449.8 697.6,446.6 L697.6,446.6 C698.5,442.8 701.6,440.4 705,440.5 C711.7,440.6 718.3,441.9 724.5,444.3 C727.7,445.5 729.7,449.6 729.1,452.8 L729.1,452.8 C728.6,455.9 725.2,458.9 721.7,458.9 z" fill-opacity="0" stroke="#430B48" stroke-width="6" stroke-linecap="round" stroke-linejoin="round" stroke-miterlimit="10" id="XMLID_61_"/>
        <path d="M724.5,439.3 C718,439.7 711.5,439.1 705.2,437.5 C701.9,436.5 699.6,432.9 699.9,429.7 L699.9,429.7 C700.4,425.8 703.2,423.4 706.6,423 C713.1,422.6 719.6,423.2 725.9,424.8 C729.2,425.8 731.5,429.4 731.2,432.6 L731.2,432.6 C730.9,435.8 727.9,439 724.5,439.3 z" fill-opacity="0" stroke="#430B48" stroke-width="6" stroke-linecap="round" stroke-linejoin="round" stroke-miterlimit="10" id="XMLID_60_"/>
      </g>
      <path d="M726.8,371.7 L726.8,391.2 C726.8,396.5 722.5,400.8 717.2,400.8 C711.9,400.8 707.6,396.5 707.6,391.2 L707.6,378.4 L688.3,378.4 L688.3,394.8 C688.3,410.8 701.2,423.7 717.2,423.7 L717.2,423.7 C733.2,423.7 746.1,410.8 746.1,394.8 L746.1,371.7 L726.8,371.7 z" fill="#CFC3D8" id="XMLID_57_"/>
      <path d="M711.4,398.9 C709.1,397.1 707.6,394.4 707.6,391.3 L707.6,383 C707.6,382.2 707.5,381.3 707.5,380.5 C707.5,379.8 707.5,379.2 707.5,378.5 L688.3,378.5 L688.3,394.9 C688.3,410.9 701.2,423.8 717.2,423.8 L717.2,423.8 C722.4,423.8 727.3,422.4 731.5,420 C722.7,415.7 715.5,408.2 711.4,398.9 z" fill="#BFB0CC" id="XMLID_187_"/>
      <path d="M726.8,371.7 L726.8,391.2 C726.8,396.5 722.5,400.8 717.2,400.8 C711.9,400.8 707.6,396.5 707.6,391.2 L707.6,378.4 L688.3,378.4 L688.3,394.8 C688.3,410.8 701.2,423.7 717.2,423.7 L717.2,423.7 C733.2,423.7 746.1,410.8 746.1,394.8 L746.1,371.7 L726.8,371.7 z" fill-opacity="0" stroke="#430B48" stroke-width="8" stroke-linecap="round" stroke-linejoin="round" stroke-miterlimit="10" id="XMLID_59_"/>
      <g id="XMLID_256_">
        <path d="M379.4,522.5 C380.3,515 380,507.5 378.6,500.1 C377.7,496.3 373.6,493.3 370,493.5 L370,493.5 C366.3,493.6 362.5,496.8 361.8,500.7 C360.9,508.2 361.2,515.7 362.6,523.1 C363.5,526.9 367.6,529.9 371.2,529.7 L371.2,529.7 C374.9,529.6 378.8,526.4 379.4,522.5 z" fill="#4B1151" id="XMLID_279_"/>
        <g id="XMLID_257_">
          <path d="M358,522.1 C360.5,515.2 362.1,507.9 362.3,500.5 C362.4,496.7 359.1,492.9 355.5,492.2 L355.5,492.2 C351.9,491.5 347.5,493.7 346.1,497.3 C343.4,504.2 342,511.5 341.8,518.9 C341.7,522.7 345,526.5 348.6,527.2 L348.6,527.2 C352.2,527.9 356.6,525.7 358,522.1 z" fill="#430B48" id="XMLID_276_"/>
          <path d="M337.8,517 C341.8,511 345,504.4 346.9,497.4 C347.9,493.8 345.6,489.4 342.4,488 L342.4,488 C339,486.5 334.4,487.5 332.3,490.6 C328.2,496.5 325.1,503.2 323.2,510.2 C322.2,513.8 324.5,518.2 327.7,519.6 L327.7,519.6 C330.8,521.1 335.6,520 337.8,517 z" fill="#4B1151" id="XMLID_273_"/>
          <path d="M319.6,507.5 C324.8,502.7 329.3,497.1 332.7,490.9 C334.5,487.6 333.2,483 330.5,480.9 L330.5,480.9 C327.5,478.6 323,478.7 320.2,481.1 C314.9,485.8 310.5,491.5 307.1,497.7 C305.3,501 306.6,505.6 309.3,507.7 L309.3,507.7 C312,509.9 316.8,509.9 319.6,507.5 z" fill="#4B1151" id="XMLID_270_"/>
          <path d="M304.1,494.3 C310.1,490.9 315.7,486.6 320.3,481.4 C322.7,478.7 322.6,474 320.5,471.4 L320.5,471.4 C318.1,468.5 313.9,467.6 310.7,469.3 C304.6,472.6 299.1,477 294.5,482.2 C292.1,484.9 292.2,489.6 294.3,492.2 L294.3,492.2 C296.4,494.9 300.9,496 304.1,494.3 z" fill="#4B1151" id="XMLID_267_"/>
          <path d="M291.9,477.9 C298.4,476 304.7,473.2 310.3,469.3 C313.2,467.3 314.2,462.8 312.8,459.8 L312.8,459.8 C311.1,456.4 307.4,454.6 303.9,455.6 C297.3,457.4 291.1,460.3 285.5,464.2 C282.6,466.2 281.6,470.7 283,473.7 L283,473.7 C284.4,476.7 288.4,478.8 291.9,477.9 z" fill="#4B1151" id="XMLID_264_"/>
          <path d="M283.6,458.9 C290.3,458.6 296.9,457.5 303.1,455.1 C306.3,453.9 308.3,449.8 307.7,446.6 L307.7,446.6 C306.8,442.8 303.7,440.4 300.3,440.5 C293.6,440.6 287,441.9 280.8,444.3 C277.6,445.5 275.6,449.6 276.2,452.8 L276.2,452.8 C276.8,455.9 280.2,458.9 283.6,458.9 z" fill="#4B1151" id="XMLID_261_"/>
          <path d="M280.8,439.3 C287.3,439.7 293.8,439.1 300.1,437.5 C303.4,436.5 305.7,432.9 305.4,429.7 L305.4,429.7 C304.9,425.8 302.1,423.4 298.7,423 C292.2,422.6 285.7,423.2 279.4,424.8 C276.1,425.8 273.8,429.4 274.1,432.6 L274.1,432.6 C274.5,435.8 277.4,439 280.8,439.3 z" fill="#4B1151" id="XMLID_258_"/>
        </g>
      </g>
      <g id="XMLID_247_">
        <path d="M379.4,522.5 C380.3,515 380,507.5 378.6,500.1 C377.7,496.3 373.6,493.3 370,493.5 L370,493.5 C366.3,493.6 362.5,496.8 361.8,500.7 C360.9,508.2 361.2,515.7 362.6,523.1 C363.5,526.9 367.6,529.9 371.2,529.7 L371.2,529.7 C374.9,529.6 378.8,526.4 379.4,522.5 z" fill-opacity="0" stroke="#430B48" stroke-width="6" stroke-linecap="round" stroke-linejoin="round" stroke-miterlimit="10" id="XMLID_255_"/>
        <path d="M358,522.1 C360.5,515.2 362.1,507.9 362.3,500.5 C362.4,496.7 359.1,492.9 355.5,492.2 L355.5,492.2 C351.9,491.5 347.5,493.7 346.1,497.3 C343.4,504.2 342,511.5 341.8,518.9 C341.7,522.7 345,526.5 348.6,527.2 L348.6,527.2 C352.2,527.9 356.6,525.7 358,522.1 z" fill-opacity="0" stroke="#430B48" stroke-width="6" stroke-linecap="round" stroke-linejoin="round" stroke-miterlimit="10" id="XMLID_254_"/>
        <path d="M337.8,517 C341.8,511 345,504.4 346.9,497.4 C347.9,493.8 345.6,489.4 342.4,488 L342.4,488 C339,486.5 334.4,487.5 332.3,490.6 C328.2,496.5 325.1,503.2 323.2,510.2 C322.2,513.8 324.5,518.2 327.7,519.6 L327.7,519.6 C330.8,521.1 335.6,520 337.8,517 z" fill-opacity="0" stroke="#430B48" stroke-width="6" stroke-linecap="round" stroke-linejoin="round" stroke-miterlimit="10" id="XMLID_253_"/>
        <path d="M319.6,507.5 C324.8,502.7 329.3,497.1 332.7,490.9 C334.5,487.6 333.2,483 330.5,480.9 L330.5,480.9 C327.5,478.6 323,478.7 320.2,481.1 C314.9,485.8 310.5,491.5 307.1,497.7 C305.3,501 306.6,505.6 309.3,507.7 L309.3,507.7 C312,509.9 316.8,509.9 319.6,507.5 z" fill-opacity="0" stroke="#430B48" stroke-width="6" stroke-linecap="round" stroke-linejoin="round" stroke-miterlimit="10" id="XMLID_252_"/>
        <path d="M304.1,494.3 C310.1,490.9 315.7,486.6 320.3,481.4 C322.7,478.7 322.6,474 320.5,471.4 L320.5,471.4 C318.1,468.5 313.9,467.6 310.7,469.3 C304.6,472.6 299.1,477 294.5,482.2 C292.1,484.9 292.2,489.6 294.3,492.2 L294.3,492.2 C296.4,494.9 300.9,496 304.1,494.3 z" fill-opacity="0" stroke="#430B48" stroke-width="6" stroke-linecap="round" stroke-linejoin="round" stroke-miterlimit="10" id="XMLID_251_"/>
        <path d="M291.9,477.9 C298.4,476 304.7,473.2 310.3,469.3 C313.2,467.3 314.2,462.8 312.8,459.8 L312.8,459.8 C311.1,456.4 307.4,454.6 303.9,455.6 C297.3,457.4 291.1,460.3 285.5,464.2 C282.6,466.2 281.6,470.7 283,473.7 L283,473.7 C284.4,476.7 288.4,478.8 291.9,477.9 z" fill-opacity="0" stroke="#430B48" stroke-width="6" stroke-linecap="round" stroke-linejoin="round" stroke-miterlimit="10" id="XMLID_250_"/>
        <path d="M283.6,458.9 C290.3,458.6 296.9,457.5 303.1,455.1 C306.3,453.9 308.3,449.8 307.7,446.6 L307.7,446.6 C306.8,442.8 303.7,440.4 300.3,440.5 C293.6,440.6 287,441.9 280.8,444.3 C277.6,445.5 275.6,449.6 276.2,452.8 L276.2,452.8 C276.8,455.9 280.2,458.9 283.6,458.9 z" fill-opacity="0" stroke="#430B48" stroke-width="6" stroke-linecap="round" stroke-linejoin="round" stroke-miterlimit="10" id="XMLID_249_"/>
        <path d="M280.8,439.3 C287.3,439.7 293.8,439.1 300.1,437.5 C303.4,436.5 305.7,432.9 305.4,429.7 L305.4,429.7 C304.9,425.8 302.1,423.4 298.7,423 C292.2,422.6 285.7,423.2 279.4,424.8 C276.1,425.8 273.8,429.4 274.1,432.6 L274.1,432.6 C274.5,435.8 277.4,439 280.8,439.3 z" fill-opacity="0" stroke="#430B48" stroke-width="6" stroke-linecap="round" stroke-linejoin="round" stroke-miterlimit="10" id="XMLID_248_"/>
      </g>
      <path d="M278.5,371.7 L278.5,391.2 C278.5,396.5 282.8,400.8 288.1,400.8 C293.4,400.8 297.7,396.5 297.7,391.2 L297.7,378.4 L317,378.4 L317,394.8 C317,410.8 304.1,423.7 288.1,423.7 L288.1,423.7 C272.1,423.7 259.2,410.8 259.2,394.8 L259.2,371.7 L278.5,371.7 z" fill="#CFC3D8" id="XMLID_191_"/>
      <path d="M294,398.9 C296.3,397.1 297.8,394.4 297.8,391.3 L297.8,383 C297.8,382.2 297.9,381.3 297.9,380.5 C297.9,379.8 297.9,379.2 297.9,378.5 L317.1,378.5 L317.1,394.9 C317.1,410.9 304.2,423.8 288.2,423.8 L288.2,423.8 C283,423.8 278.1,422.4 273.9,420 C282.7,415.7 289.9,408.2 294,398.9 z" fill="#BFB0CC" id="XMLID_183_"/>
      <path d="M278.5,371.7 L278.5,391.2 C278.5,396.5 282.8,400.8 288.1,400.8 C293.4,400.8 297.7,396.5 297.7,391.2 L297.7,378.4 L317,378.4 L317,394.8 C317,410.8 304.1,423.7 288.1,423.7 L288.1,423.7 C272.1,423.7 259.2,410.8 259.2,394.8 L259.2,371.7 L278.5,371.7 z" fill-opacity="0" stroke="#430B48" stroke-width="8" stroke-linecap="round" stroke-linejoin="round" stroke-miterlimit="10" id="XMLID_84_"/>
      <path d="M608.7,326.1 L592.7,326.1 L592.7,244.1 L608.7,244.1 C613.1,244.1 616.7,247.7 616.7,252.1 L616.7,318.1 C616.7,322.6 613.1,326.1 608.7,326.1 z" fill="#BFB0CC" id="XMLID_52_"/>
      <path d="M608.7,244.1 L592.7,244.1 L592.7,255.1 L608.7,255.1 C613.1,255.1 616.7,258.7 616.7,263.1 L616.7,252.1 C616.7,247.7 613.1,244.1 608.7,244.1 z" fill="#FFFFFF" id="XMLID_20_"/>
      <path d="M608.7,326.1 L592.7,326.1 L592.7,244.1 L608.7,244.1 C613.1,244.1 616.7,247.7 616.7,252.1 L616.7,318.1 C616.7,322.6 613.1,326.1 608.7,326.1 z" fill-opacity="0" stroke="#430B48" stroke-width="8" stroke-linecap="round" stroke-linejoin="round" stroke-miterlimit="10" id="XMLID_15_"/>
      <path d="M392.9,285.1 L356.9,285.1" fill-opacity="0" stroke="#430B48" stroke-width="8" stroke-linecap="round" stroke-linejoin="round" stroke-miterlimit="10" id="XMLID_93_"/>
      <path d="M356.9,285.1 C356.9,293.937 349.737,301.1 340.9,301.1 C332.063,301.1 324.9,293.937 324.9,285.1 C324.9,276.263 332.063,269.1 340.9,269.1 C349.737,269.1 356.9,276.263 356.9,285.1 z" fill="#BFB0CC" id="XMLID_69_"/>
      <path d="M356.9,285.1 C356.9,293.937 349.737,301.1 340.9,301.1 C332.063,301.1 324.9,293.937 324.9,285.1 C324.9,276.263 332.063,269.1 340.9,269.1 C349.737,269.1 356.9,276.263 356.9,285.1 z" fill-opacity="0" stroke="#430B48" stroke-width="8" stroke-linecap="round" stroke-linejoin="round" stroke-miterlimit="10" id="XMLID_92_"/>
      <path d="M396.7,326.1 L412.7,326.1 L412.7,244.1 L396.7,244.1 C392.3,244.1 388.7,247.7 388.7,252.1 L388.7,318.1 C388.7,322.6 392.3,326.1 396.7,326.1 z" fill="#BFB0CC" id="XMLID_67_"/>
      <path d="M396.7,244.1 C392.3,244.1 388.7,247.7 388.7,252.1 L388.7,263.1 C388.7,258.7 392.3,255.1 396.7,255.1 L412.7,255.1 L412.7,244.1 L396.7,244.1 z" fill="#E6EEF1" id="XMLID_23_"/>
      <path d="M396.7,326.1 L412.7,326.1 L412.7,244.1 L396.7,244.1 C392.3,244.1 388.7,247.7 388.7,252.1 L388.7,318.1 C388.7,322.6 392.3,326.1 396.7,326.1 z" fill-opacity="0" stroke="#430B48" stroke-width="8" stroke-linecap="round" stroke-linejoin="round" stroke-miterlimit="10" id="XMLID_94_"/>
      <path d="M608.7,326.1 L592.7,326.1 L592.7,244.1 L608.7,244.1 C613.1,244.1 616.7,247.7 616.7,252.1 L616.7,318.1 C616.7,322.6 613.1,326.1 608.7,326.1 z" fill-opacity="0" stroke="#430B48" stroke-width="8" stroke-linecap="round" stroke-linejoin="round" stroke-miterlimit="10" id="XMLID_5_"/>
      <path d="M396.7,326.1 L412.7,326.1 L412.7,244.1 L396.7,244.1 C392.3,244.1 388.7,247.7 388.7,252.1 L388.7,318.1 C388.7,322.6 392.3,326.1 396.7,326.1 z" fill-opacity="0" stroke="#430B48" stroke-width="8" stroke-linecap="round" stroke-linejoin="round" stroke-miterlimit="10" id="XMLID_4_"/>
      <path d="M556.7,379.1 L448.7,379.1 C426.6,379.1 408.7,361.2 408.7,339.1 L408.7,231.1 C408.7,209 426.6,191.1 448.7,191.1 L556.7,191.1 C578.8,191.1 596.7,209 596.7,231.1 L596.7,339.1 C596.7,361.2 578.8,379.1 556.7,379.1 z" fill="#E0E0E0" id="XMLID_88_"/>
      <path d="M556.7,379.1 L448.7,379.1 C426.6,379.1 408.7,361.2 408.7,339.1 L408.7,231.1 C408.7,209 426.6,191.1 448.7,191.1 L556.7,191.1 C578.8,191.1 596.7,209 596.7,231.1 L596.7,339.1 C596.7,361.2 578.8,379.1 556.7,379.1 z" fill="#E0E0E0" id="XMLID_39_"/>
      <path d="M556.7,379.1 L448.7,379.1 C426.6,379.1 408.7,361.2 408.7,339.1 L408.7,231.1 C408.7,209 426.6,191.1 448.7,191.1 L556.7,191.1 C578.8,191.1 596.7,209 596.7,231.1 L596.7,339.1 C596.7,361.2 578.8,379.1 556.7,379.1 z" fill="#E0E0E0" id="XMLID_108_"/>
      <path d="M556.7,191.1 L448.7,191.1 C426.6,191.1 408.7,209 408.7,231.1 L408.7,241 C408.7,218.9 426.6,201 448.7,201 L556.7,201 C578.8,201 596.7,218.9 596.7,241 L596.7,231.1 C596.7,209 578.8,191.1 556.7,191.1 z" fill="#FFFFFF" id="XMLID_133_"/>
      <path d="M556.7,362.7 L448.7,362.7 C426.6,362.7 408.7,349.7 408.7,327.6 L408.7,339.1 C408.7,361.2 426.6,379.1 448.7,379.1 L556.7,379.1 C578.8,379.1 596.7,361.2 596.7,339.1 L596.7,327.6 C596.7,349.8 578.8,362.7 556.7,362.7 z" fill="#BFB0CC" id="XMLID_154_"/>
      <path d="M556.7,379.1 L448.7,379.1 C426.6,379.1 408.7,361.2 408.7,339.1 L408.7,231.1 C408.7,209 426.6,191.1 448.7,191.1 L556.7,191.1 C578.8,191.1 596.7,209 596.7,231.1 L596.7,339.1 C596.7,361.2 578.8,379.1 556.7,379.1 z" fill-opacity="0" stroke="#430B48" stroke-width="8" stroke-linecap="round" stroke-linejoin="round" stroke-miterlimit="10" id="XMLID_2_"/>
      <path d="M542.7,191.1 C542.7,203.25 524.791,213.1 502.7,213.1 C480.609,213.1 462.7,203.25 462.7,191.1 C462.7,178.95 480.609,169.1 502.7,169.1 C524.791,169.1 542.7,178.95 542.7,191.1 z" fill="#FEA74A" id="XMLID_90_"/>
      <path d="M542.7,191.1 C542.7,203.25 524.791,213.1 502.7,213.1 C480.609,213.1 462.7,203.25 462.7,191.1 C462.7,178.95 480.609,169.1 502.7,169.1 C524.791,169.1 542.7,178.95 542.7,191.1 z" fill="#BBC6CC" id="XMLID_76_"/>
      <path d="M542.7,191.1 C542.7,201.538 524.791,210 502.7,210 C480.609,210 462.7,201.538 462.7,191.1 C462.7,180.662 480.609,172.2 502.7,172.2 C524.791,172.2 542.7,180.662 542.7,191.1 z" fill="#E0E0E0" id="XMLID_38_"/>
      <path d="M541.4,186.6 C538.4,197.1 521.9,200.1 501.9,200.1 C483.3,200.1 467.7,198.2 463.2,188.8 C462.9,189.9 462.7,187 462.7,188.2 C462.7,200.3 480.6,210.1 502.7,210.1 C524.8,210.1 542.7,200.3 542.7,188.2 C542.7,186.2 542.2,188.3 541.4,186.6 z" fill="#BFB0CC" id="XMLID_126_"/>
      <path d="M542.7,191.1 C542.7,201.538 524.791,210 502.7,210 C480.609,210 462.7,201.538 462.7,191.1 C462.7,180.662 480.609,172.2 502.7,172.2 C524.791,172.2 542.7,180.662 542.7,191.1 z" fill-opacity="0" stroke="#430B48" stroke-width="8" stroke-linecap="round" stroke-linejoin="round" stroke-miterlimit="10" id="XMLID_6_"/>
      <g id="XMLID_74_">
        <path d="M544.8,284.3 C544.8,307.551 525.951,326.4 502.7,326.4 C479.449,326.4 460.6,307.551 460.6,284.3 C460.6,261.049 479.449,242.2 502.7,242.2 C525.951,242.2 544.8,261.049 544.8,284.3 z" fill="#CFC3D8"/>
        <path d="M544.8,284.3 C544.8,307.551 525.951,326.4 502.7,326.4 C479.449,326.4 460.6,307.551 460.6,284.3 C460.6,261.049 479.449,242.2 502.7,242.2 C525.951,242.2 544.8,261.049 544.8,284.3 z" fill-opacity="0" stroke="#CFC3D8" stroke-width="8" stroke-linecap="round" stroke-linejoin="round" stroke-miterlimit="10"/>
      </g>
      <path d="M544.8,277.6 C544.8,300.851 525.951,319.7 502.7,319.7 C479.449,319.7 460.6,300.851 460.6,277.6 C460.6,254.349 479.449,235.5 502.7,235.5 C525.951,235.5 544.8,254.349 544.8,277.6 z" fill="#E6EEF1" id="XMLID_89_"/>
      <path d="M544.8,277.6 C544.8,300.851 525.951,319.7 502.7,319.7 C479.449,319.7 460.6,300.851 460.6,277.6 C460.6,254.349 479.449,235.5 502.7,235.5 C525.951,235.5 544.8,254.349 544.8,277.6 z" fill-opacity="0" stroke="#430B48" stroke-width="8" stroke-linecap="round" stroke-linejoin="round" stroke-miterlimit="10" id="XMLID_7_"/>
      <path d="M522.8,287 C522.8,298.543 513.443,307.9 501.9,307.9 C490.357,307.9 481,298.543 481,287 C481,275.457 490.357,266.1 501.9,266.1 C513.443,266.1 522.8,275.457 522.8,287 z" fill="#23B5E2" id="XMLID_58_"/>
      <path d="M522.8,287 C522.8,298.543 513.443,307.9 501.9,307.9 C490.357,307.9 481,298.543 481,287 C481,275.457 490.357,266.1 501.9,266.1 C513.443,266.1 522.8,275.457 522.8,287 z" fill-opacity="0" stroke="#430B48" stroke-width="8" stroke-linecap="round" stroke-linejoin="round" stroke-miterlimit="10" id="XMLID_54_"/>
      <path d="M513,287 C513,293.13 508.03,298.1 501.9,298.1 C495.77,298.1 490.8,293.13 490.8,287 C490.8,280.87 495.77,275.9 501.9,275.9 C508.03,275.9 513,280.87 513,287 z" fill="#430B48" id="XMLID_55_"/>
      <g id="XMLID_239_">
        <path d="M546.9,346.7 L546.9,354.7" fill-opacity="0" stroke="#BBC6CC" stroke-width="8" stroke-linecap="round" stroke-linejoin="round" stroke-miterlimit="10" id="XMLID_246_"/>
        <path d="M532.1,345.1 L532.1,356.4" fill-opacity="0" stroke="#BBC6CC" stroke-width="8" stroke-linecap="round" stroke-linejoin="round" stroke-miterlimit="10" id="XMLID_245_"/>
        <path d="M517.4,343.4 L517.4,358.1" fill-opacity="0" stroke="#BBC6CC" stroke-width="8" stroke-linecap="round" stroke-linejoin="round" stroke-miterlimit="10" id="XMLID_244_"/>
        <path d="M502.7,341.7 L502.7,359.7" fill-opacity="0" stroke="#BBC6CC" stroke-width="8" stroke-linecap="round" stroke-linejoin="round" stroke-miterlimit="10" id="XMLID_243_"/>
        <path d="M458.5,346.7 L458.5,354.7" fill-opacity="0" stroke="#BBC6CC" stroke-width="8" stroke-linecap="round" stroke-linejoin="round" stroke-miterlimit="10" id="XMLID_242_"/>
        <path d="M473.2,345.1 L473.2,356.4" fill-opacity="0" stroke="#BBC6CC" stroke-width="8" stroke-linecap="round" stroke-linejoin="round" stroke-miterlimit="10" id="XMLID_241_"/>
        <path d="M488,343.4 L488,358.1" fill-opacity="0" stroke="#BBC6CC" stroke-width="8" stroke-linecap="round" stroke-linejoin="round" stroke-miterlimit="10" id="XMLID_240_"/>
      </g>
      <g id="XMLID_220_">
        <path d="M546.9,343.7 L546.9,351.7" fill-opacity="0" stroke="#430B48" stroke-width="8" stroke-linecap="round" stroke-linejoin="round" stroke-miterlimit="10" id="XMLID_227_"/>
        <path d="M532.1,342.1 L532.1,353.4" fill-opacity="0" stroke="#430B48" stroke-width="8" stroke-linecap="round" stroke-linejoin="round" stroke-miterlimit="10" id="XMLID_226_"/>
        <path d="M517.4,340.4 L517.4,355.1" fill-opacity="0" stroke="#430B48" stroke-width="8" stroke-linecap="round" stroke-linejoin="round" stroke-miterlimit="10" id="XMLID_225_"/>
        <path d="M502.7,338.7 L502.7,356.7" fill-opacity="0" stroke="#430B48" stroke-width="8" stroke-linecap="round" stroke-linejoin="round" stroke-miterlimit="10" id="XMLID_224_"/>
        <path d="M458.5,343.7 L458.5,351.7" fill-opacity="0" stroke="#430B48" stroke-width="8" stroke-linecap="round" stroke-linejoin="round" stroke-miterlimit="10" id="XMLID_223_"/>
        <path d="M473.2,342.1 L473.2,353.4" fill-opacity="0" stroke="#430B48" stroke-width="8" stroke-linecap="round" stroke-linejoin="round" stroke-miterlimit="10" id="XMLID_222_"/>
        <path d="M488,340.4 L488,355.1" fill-opacity="0" stroke="#430B48" stroke-width="8" stroke-linecap="round" stroke-linejoin="round" stroke-miterlimit="10" id="XMLID_221_"/>
      </g>
      <path d="M486.7,379.1 L518.7,379.1 L518.7,423.1 L486.7,423.1 z" fill="#CFC3D8" id="XMLID_91_"/>
      <path d="M486.7,379.1 L518.7,379.1 L518.7,395.5 L486.7,395.5 z" fill="#430B48" id="XMLID_87_"/>
      <path d="M486.7,379.1 L518.7,379.1 L518.7,423.1 L486.7,423.1 z" fill-opacity="0" stroke="#430B48" stroke-width="8" stroke-linecap="round" stroke-linejoin="round" stroke-miterlimit="10" id="XMLID_18_"/>
      <path d="M638.3,530.2 C619.9,580.2 588.9,624.1 549.2,658.1 C522.5,681 482.9,681 456.2,658.1 C416.5,624.1 385.5,580.2 367.1,530.2 C352.6,490.9 374.4,447.8 414.5,435.9 C442.4,427.6 472,423.1 502.7,423.1 C533.4,423.1 562.9,427.6 590.9,435.9 C631,447.8 652.8,490.9 638.3,530.2 z" fill="#E0E0E0" id="XMLID_95_"/>
      <path d="M638.3,530.2 C619.9,580.2 588.9,624.1 549.2,658.1 C522.5,681 482.9,681 456.2,658.1 C416.5,624.1 385.5,580.2 367.1,530.2 C352.6,490.9 374.4,447.8 414.5,435.9 C442.4,427.6 472,423.1 502.7,423.1 C533.4,423.1 562.9,427.6 590.9,435.9 C631,447.8 652.8,490.9 638.3,530.2 z" fill="#E0E0E0" id="XMLID_119_"/>
      <path d="M414.5,443.9 C442.4,435.6 472,431.1 502.7,431.1 C533.4,431.1 562.9,435.6 590.9,443.9 C621.2,452.9 641,479.6 642.7,509.1 C644.5,476.6 623.9,445.7 590.9,435.9 C563,427.6 533.4,423.1 502.7,423.1 C472,423.1 442.5,427.6 414.5,435.9 C381.5,445.7 360.9,476.6 362.7,509.1 C364.4,479.7 384.2,452.9 414.5,443.9 z" fill="#FFFFFF" id="XMLID_195_"/>
      <path d="M551.3,624 C523.4,646.9 481.9,646.9 454,624 C413.8,591.1 382.2,549 362.7,501.1 C362.2,510.7 363.5,520.6 367.1,530.2 C385.5,580.2 416.5,624.1 456.2,658.1 C482.9,681 522.5,681 549.2,658.1 C588.9,624.1 619.9,580.2 638.3,530.2 C641.9,520.6 643.2,510.7 642.7,501.1 C623.2,549 591.5,591.1 551.3,624 z" fill="#CFC3D8" id="XMLID_175_"/>
      <path d="M638.3,530.2 C619.9,580.2 588.9,624.1 549.2,658.1 C522.5,681 482.9,681 456.2,658.1 C416.5,624.1 385.5,580.2 367.1,530.2 C352.6,490.9 374.4,447.8 414.5,435.9 C442.4,427.6 472,423.1 502.7,423.1 C533.4,423.1 562.9,427.6 590.9,435.9 C631,447.8 652.8,490.9 638.3,530.2 z" fill-opacity="0" stroke="#430B48" stroke-width="8" stroke-linecap="round" stroke-linejoin="round" stroke-miterlimit="10" id="XMLID_28_"/>
      <path d="M547,553 L458.3,553 C451.9,553 446.6,547.8 446.6,541.3 L446.6,500.6 C446.6,494.2 451.8,488.9 458.3,488.9 L547,488.9 C553.4,488.9 558.7,494.1 558.7,500.6 L558.7,541.3 C558.7,547.8 553.5,553 547,553 z" fill="url(#Gradient_1)" id="XMLID_96_"/>
      <path d="M446.7,535 L460.8,510.8 L472.2,544.6 L488.3,507.9 L500.8,534.3 L509.8,500.3 L526.2,544.6 L540.9,508.4 L558.7,534.3" fill-opacity="0" stroke="#3A3A3A" stroke-width="4" stroke-linecap="round" stroke-linejoin="round" stroke-miterlimit="10" id="XMLID_21_"/>
      <path d="M548.6,509.1 L456.7,509.1 C451.1,509.1 446.6,504.6 446.6,499 L446.6,499 C446.6,493.4 451.1,488.9 456.7,488.9 L548.6,488.9 C554.2,488.9 558.7,493.4 558.7,499 L558.7,499 C558.7,504.6 554.2,509.1 548.6,509.1 z" fill="#FFFFFF" id="XMLID_103_" opacity="0.3"/>
      <path d="M547,553 L458.3,553 C451.9,553 446.6,547.8 446.6,541.3 L446.6,500.6 C446.6,494.2 451.8,488.9 458.3,488.9 L547,488.9 C553.4,488.9 558.7,494.1 558.7,500.6 L558.7,541.3 C558.7,547.8 553.5,553 547,553 z" fill-opacity="0" stroke="#430B48" stroke-width="6" stroke-linecap="round" stroke-linejoin="round" stroke-miterlimit="10" id="XMLID_19_"/>
      <path d="M516.2,185.5 C516.2,188.593 510.156,191.1 502.7,191.1 C495.244,191.1 489.2,188.593 489.2,185.5 C489.2,182.407 495.244,179.9 502.7,179.9 C510.156,179.9 516.2,182.407 516.2,185.5 z" fill="#FFFFFF" id="XMLID_51_"/>
      <path d="M507.7,279.1 C507.7,281.806 504.879,284 501.4,284 C497.921,284 495.1,281.806 495.1,279.1 C495.1,276.394 497.921,274.2 501.4,274.2 C504.879,274.2 507.7,276.394 507.7,279.1 z" fill="#E6EEF1" id="XMLID_70_"/>
      <path d="M671.3,280.1 C671.3,282.309 668.972,284.1 666.1,284.1 C663.228,284.1 660.9,282.309 660.9,280.1 C660.9,277.891 663.228,276.1 666.1,276.1 C668.972,276.1 671.3,277.891 671.3,280.1 z" fill="#FFFFFF" id="XMLID_116_"/>
      <path d="M344.5,280.1 C344.5,282.309 342.172,284.1 339.3,284.1 C336.428,284.1 334.1,282.309 334.1,280.1 C334.1,277.891 336.428,276.1 339.3,276.1 C342.172,276.1 344.5,277.891 344.5,280.1 z" fill="#FFFFFF" id="XMLID_134_"/>
      <path d="M515,575.7 C515,582.162 509.762,587.4 503.3,587.4 C496.838,587.4 491.6,582.162 491.6,575.7 C491.6,569.238 496.838,564 503.3,564 C509.762,564 515,569.238 515,575.7 z" fill="#CFC3D8" id="XMLID_25_"/>
      <path d="M515,575.7 C515,582.162 509.762,587.4 503.3,587.4 C496.838,587.4 491.6,582.162 491.6,575.7 C491.6,569.238 496.838,564 503.3,564 C509.762,564 515,569.238 515,575.7 z" fill-opacity="0" stroke="#430B48" stroke-width="4" stroke-linecap="round" stroke-linejoin="round" stroke-miterlimit="10" id="XMLID_9_"/>
      <path d="M509.8,573.3 L508.5,571.1 C508.3,570.8 507.9,570.6 507.5,570.8 L507.5,570.8 C506.4,571.4 505.1,570.6 505.1,569.4 L505.1,569.4 C505.1,569 504.8,568.7 504.4,568.7 L501.9,568.7 C501.5,568.7 501.2,569 501.2,569.4 L501.2,569.4 C501.2,570.6 499.9,571.4 498.8,570.8 L498.8,570.8 C498.5,570.6 498,570.7 497.8,571.1 L496.5,573.3 C496.3,573.6 496.4,574.1 496.8,574.3 L496.8,574.3 C497.9,574.9 497.9,576.4 496.8,577 L496.8,577 C496.5,577.2 496.3,577.6 496.5,578 L497.8,580.2 C498,580.5 498.4,580.7 498.8,580.5 L498.8,580.5 C499.9,579.9 501.2,580.7 501.2,581.9 L501.2,581.9 C501.2,582.3 501.5,582.6 501.9,582.6 L504.4,582.6 C504.8,582.6 505.1,582.3 505.1,581.9 L505.1,581.9 C505.1,580.7 506.4,579.9 507.5,580.5 L507.5,580.5 C507.8,580.7 508.3,580.6 508.5,580.2 L509.8,578 C510,577.7 509.9,577.2 509.5,577 L509.5,577 C508.4,576.4 508.4,574.9 509.5,574.3 L509.5,574.3 C509.9,574.1 510,573.7 509.8,573.3 z" fill="#430B48" id="XMLID_37_"/>
    </g>
    <path d="M-373.6,300.7 C-373.6,320.693 -389.807,336.9 -409.8,336.9 C-429.793,336.9 -446,320.693 -446,300.7 C-446,280.707 -429.793,264.5 -409.8,264.5 C-389.807,264.5 -373.6,280.707 -373.6,300.7 z" fill-opacity="0" stroke="#430B48" stroke-width="8" stroke-linecap="round" stroke-linejoin="round" stroke-miterlimit="10" id="XMLID_27_"/>
    <path d="M-373.6,400.8 C-373.6,420.793 -389.807,437 -409.8,437 C-429.793,437 -446,420.793 -446,400.8 C-446,380.807 -429.793,364.6 -409.8,364.6 C-389.807,364.6 -373.6,380.807 -373.6,400.8 z" fill="#FE3E4B" id="XMLID_36_"/>
    <path d="M-373.6,487.9 C-373.6,507.893 -389.807,524.1 -409.8,524.1 C-429.793,524.1 -446,507.893 -446,487.9 C-446,467.907 -429.793,451.7 -409.8,451.7 C-389.807,451.7 -373.6,467.907 -373.6,487.9 z" fill="#FE4B49" id="XMLID_41_"/>
    <path d="M-373.6,578.2 C-373.6,598.193 -389.807,614.4 -409.8,614.4 C-429.793,614.4 -446,598.193 -446,578.2 C-446,558.207 -429.793,542 -409.8,542 C-389.807,542 -373.6,558.207 -373.6,578.2 z" fill="#FE5944" id="XMLID_56_"/>
    <path d="M-275.6,387.1 C-275.6,407.093 -291.807,423.3 -311.8,423.3 C-331.793,423.3 -348,407.093 -348,387.1 C-348,367.107 -331.793,350.9 -311.8,350.9 C-291.807,350.9 -275.6,367.107 -275.6,387.1 z" fill="#E0E0E0" id="XMLID_72_"/>
    <path d="M-185,327.2 C-185,347.193 -201.207,363.4 -221.2,363.4 C-241.193,363.4 -257.4,347.193 -257.4,327.2 C-257.4,307.207 -241.193,291 -221.2,291 C-201.207,291 -185,307.207 -185,327.2 z" fill="#FFFFFF" id="XMLID_111_" opacity="0.3"/>
    <path d="M-185,424.5 C-185,444.493 -201.207,460.7 -221.2,460.7 C-241.193,460.7 -257.4,444.493 -257.4,424.5 C-257.4,404.507 -241.193,388.3 -221.2,388.3 C-201.207,388.3 -185,404.507 -185,424.5 z" fill="#23B5E2" id="XMLID_113_"/>
    <path d="M-275.6,478.7 C-275.6,498.693 -291.807,514.9 -311.8,514.9 C-331.793,514.9 -348,498.693 -348,478.7 C-348,458.707 -331.793,442.5 -311.8,442.5 C-291.807,442.5 -275.6,458.707 -275.6,478.7 z" fill="#BFB0CC" id="XMLID_75_"/>
    <path d="M-275.6,292.2 C-275.6,312.193 -291.807,328.4 -311.8,328.4 C-331.793,328.4 -348,312.193 -348,292.2 C-348,272.207 -331.793,256 -311.8,256 C-291.807,256 -275.6,272.207 -275.6,292.2 z" fill="url(#Gradient_2)" id="XMLID_109_"/>
    <path d="M-275.6,582 C-275.6,601.993 -291.807,618.2 -311.8,618.2 C-331.793,618.2 -348,601.993 -348,582 C-348,562.007 -331.793,545.8 -311.8,545.8 C-291.807,545.8 -275.6,562.007 -275.6,582 z" fill="#4B1151" id="XMLID_100_"/>
  </g>
</svg>
